<svg xmlns="http://www.w3.org/2000/svg" width="197" height="44" viewBox="0 0 197 44" fill="none"><g clip-path="url(#clip0_200_2040)"><path d="M16.7706 15.3468L16.7406 17.6268H19.1106C19.1106 17.6268 15.5406 20.6668 18.8006 24.5568C18.8006 24.5568 21.7206 27.5968 25.3206 24.7368L28.2506 24.3268L27.6606 26.9668C27.6606 26.9668 24.9506 29.7368 21.0606 29.1968C21.0606 29.1968 16.5606 28.8068 14.7306 24.3568C14.7206 24.3568 12.4306 19.4968 16.7706 15.3468Z" fill="#DC2E2E"/><path d="M12.0406 13.0968L14.6406 13.2068C14.6406 13.2068 8.06057 18.6268 12.3106 26.9868C12.3106 26.9868 18.3406 36.7268 28.5306 29.9768L31.3506 29.9168L31.1406 32.5768C31.1406 32.5768 23.1706 40.2168 12.8206 33.1868C12.8206 33.1868 6.73057 28.7568 7.12057 21.1168C7.12057 21.1168 7.01057 14.9168 12.1006 10.4368L12.0406 13.0968Z" fill="#DC2E2E"/><path d="M31.2006 29.9268L28.5406 29.9768C28.5406 29.9768 35.1806 24.3968 30.9206 16.0368C30.9206 16.0368 24.8306 6.4568 14.6506 13.2068L12.0506 13.0968L12.1106 10.4468C12.1106 10.4468 20.0806 2.8068 30.4306 9.8368C30.4306 9.8368 36.5206 14.2668 36.1306 21.8968C36.1306 21.8968 36.2406 28.0968 31.1506 32.5768L31.2006 29.9268Z" fill="#555659"/><path d="M24.4506 17.4668C24.5006 17.4968 24.5406 17.5368 24.5606 17.5868C24.5906 17.6368 24.5806 17.6968 24.5506 17.7568L23.8106 18.8568C23.7806 18.9068 23.7406 18.9368 23.7106 18.9468C23.6706 18.9568 23.6306 18.9468 23.5806 18.9068C23.4306 18.7968 23.2806 18.7068 23.1106 18.6468C22.9406 18.5868 22.7506 18.5568 22.5606 18.5568C22.3206 18.5568 22.1006 18.6068 21.9006 18.6968C21.7006 18.7868 21.5206 18.9268 21.3806 19.0868C21.2306 19.2568 21.1206 19.4468 21.0406 19.6668C20.9606 19.8868 20.9206 20.1168 20.9206 20.3668C20.9206 20.6168 20.9606 20.8468 21.0406 21.0668C21.1206 21.2868 21.2306 21.4768 21.3806 21.6368C21.5306 21.7968 21.7006 21.9268 21.9006 22.0168C22.1006 22.1168 22.3206 22.1568 22.5606 22.1568C22.7506 22.1568 22.9406 22.1268 23.1106 22.0668C23.2906 22.0068 23.4406 21.9168 23.5906 21.8068C23.6406 21.7668 23.6906 21.7568 23.7206 21.7668C23.7506 21.7768 23.7906 21.7968 23.8306 21.8468L24.5806 22.9768C24.6106 23.0468 24.6206 23.0968 24.6006 23.1468C24.5706 23.1868 24.5306 23.2268 24.4906 23.2568C24.2206 23.4468 23.9206 23.5968 23.6006 23.7068C23.2806 23.8068 22.9506 23.8668 22.6006 23.8668C22.2906 23.8668 21.9906 23.8268 21.7106 23.7368C21.4306 23.6568 21.1606 23.5368 20.9106 23.3868C20.6606 23.2368 20.4306 23.0568 20.2306 22.8468C20.0306 22.6368 19.8506 22.3968 19.7106 22.1368C19.5606 21.8768 19.4506 21.5968 19.3806 21.3068C19.3006 21.0068 19.2606 20.6968 19.2606 20.3768C19.2606 20.0568 19.3006 19.7468 19.3806 19.4468C19.4606 19.1468 19.5706 18.8668 19.7106 18.6168C19.8606 18.3568 20.0306 18.1168 20.2306 17.9068C20.4306 17.6968 20.6606 17.5068 20.9106 17.3568C21.1606 17.2068 21.4206 17.0868 21.7106 17.0068C22.0006 16.9268 22.2906 16.8768 22.6006 16.8768C22.9506 16.8768 23.2806 16.9268 23.5906 17.0368C23.8806 17.1368 24.1706 17.2768 24.4506 17.4668Z" fill="#DC2E2E"/><path d="M25.5706 17.1868C25.5706 17.1268 25.5906 17.0768 25.6206 17.0368C25.6506 16.9968 25.7006 16.9768 25.7706 16.9768H28.5706C28.7706 16.9768 28.9606 17.0068 29.1406 17.0668C29.3206 17.1268 29.4806 17.2068 29.6306 17.3068C29.7806 17.4068 29.9106 17.5268 30.0306 17.6768C30.1506 17.8168 30.2506 17.9668 30.3306 18.1368C30.4206 18.2968 30.4806 18.4768 30.5206 18.6568C30.5706 18.8368 30.5906 19.0268 30.5906 19.2068C30.5906 19.4768 30.5406 19.7468 30.4506 20.0068C30.3506 20.2668 30.2206 20.5068 30.0406 20.7068C29.8606 20.9068 29.6506 21.0768 29.4106 21.1968C29.1706 21.3268 28.8906 21.3868 28.5906 21.3868H27.2606V23.5668C27.2606 23.6968 27.1906 23.7668 27.0606 23.7668H25.7606C25.7006 23.7668 25.6606 23.7468 25.6206 23.7168C25.5906 23.6868 25.5706 23.6368 25.5706 23.5668V17.1868V17.1868ZM28.8806 19.1868C28.8806 19.0968 28.8606 19.0068 28.8306 18.9168C28.8006 18.8268 28.7606 18.7468 28.6906 18.6668C28.6306 18.5968 28.5606 18.5368 28.4806 18.4868C28.4006 18.4368 28.3006 18.4168 28.2006 18.4168H27.2706V19.9368H28.2006C28.3106 19.9368 28.4006 19.9168 28.4906 19.8768C28.5806 19.8268 28.6406 19.7768 28.7006 19.7068C28.7606 19.6368 28.8006 19.5568 28.8306 19.4668C28.8606 19.3768 28.8806 19.2868 28.8806 19.1868Z" fill="#555659"/><path d="M7.18057 5.5468V8.4468H9.96057C9.96057 8.4468 -0.0994334 17.3168 6.41057 29.9168C6.41057 29.9168 10.5506 37.3668 18.2406 38.6168C18.2406 38.6168 26.4606 40.7468 33.3206 34.5368H36.3406V37.3168C36.3406 37.3168 24.7206 48.8868 9.47057 39.3168C9.47057 39.3168 0.290567 34.3668 0.140567 21.2968C0.140567 21.2768 -0.0994334 11.7768 7.18057 5.5468Z" fill="#DC2E2E"/><path d="M36.3406 37.3068V34.5268H33.3206C33.3206 34.5268 43.4506 25.7068 36.9406 13.1268C36.9406 13.1268 32.8006 5.6868 25.1106 4.4468C25.1106 4.4468 16.8206 2.2468 9.96056 8.4468H7.18056V5.5468C7.18056 5.5468 18.9006 -5.7632 33.9306 3.9168C33.9306 3.9168 42.9206 9.2968 43.2206 21.7568C43.2206 21.7568 43.4406 30.8668 36.3406 37.3068Z" fill="#555659"/><path d="M50.0413 0H49.2213V43.31H50.0413V0Z" fill="#555659"/><path d="M68.3813 29.0401C67.7213 29.3901 66.2413 29.7601 64.3213 29.7601C58.8513 29.7601 56.0413 26.1801 56.0413 21.4301C56.0413 15.7501 59.8913 12.5901 64.6713 12.5901C66.5213 12.5901 67.9313 12.9901 68.5613 13.3301L67.8313 16.3201C67.1013 16.0001 66.0913 15.7101 64.8313 15.7101C61.9913 15.7101 59.7813 17.5101 59.7813 21.2201C59.7813 24.5601 61.6613 26.6601 64.8513 26.6601C65.9313 26.6601 67.1313 26.4101 67.8313 26.1201L68.3813 29.0401Z" fill="#DC2E2E"/><path d="M74.2915 12.8601V22.4501C74.2915 25.3201 75.3215 26.7701 77.1515 26.7701C79.0315 26.7701 80.0615 25.3901 80.0615 22.4501V12.8601H83.6315V22.2001C83.6315 27.3401 81.1715 29.7801 77.0315 29.7801C73.0415 29.7801 70.7015 27.4601 70.7015 22.1501V12.8601H74.2915Z" fill="#DC2E2E"/><path d="M86.7315 13.0801C87.6715 12.8801 89.5715 12.7301 91.3515 12.7301C93.5315 12.7301 94.8715 12.9501 96.0215 13.6701C97.1215 14.2901 97.9215 15.4201 97.9215 16.9301C97.9215 18.4101 97.1015 19.8001 95.3215 20.4901V20.5401C97.1215 21.0601 98.4615 22.4901 98.4615 24.6401C98.4615 26.1501 97.8015 27.3301 96.8215 28.1701C95.6715 29.1401 93.7515 29.6801 90.6015 29.6801C88.8415 29.6801 87.5315 29.5501 86.7315 29.4301V13.0801V13.0801ZM90.2715 19.4501H91.4415C93.3215 19.4501 94.3315 18.6301 94.3315 17.4001C94.3315 16.1401 93.4115 15.4701 91.7915 15.4701C91.0215 15.4701 90.5715 15.5201 90.2715 15.5701V19.4501ZM90.2715 26.8401C90.6215 26.8901 91.0415 26.8901 91.6515 26.8901C93.2715 26.8901 94.7015 26.2501 94.7015 24.4901C94.7015 22.8101 93.2715 22.1501 91.4815 22.1501H90.2615V26.8401H90.2715Z" fill="#DC2E2E"/><path d="M100.911 13.0801C102.061 12.8801 103.781 12.7301 105.671 12.7301C108.021 12.7301 109.661 13.1001 110.791 14.0401C111.731 14.8301 112.241 15.9901 112.241 17.5301C112.241 19.6501 110.811 21.1101 109.451 21.6301V21.7001C110.551 22.1701 111.161 23.2801 111.561 24.8101C112.051 26.6901 112.551 28.8601 112.851 29.5001H109.191C108.931 29.0301 108.561 27.6701 108.091 25.6201C107.671 23.5501 106.991 22.9701 105.531 22.9501H104.451V29.5001H100.911V13.0801V13.0801ZM104.451 20.2401H105.861C107.641 20.2401 108.701 19.3001 108.701 17.8401C108.701 16.3101 107.711 15.5401 106.071 15.5201C105.201 15.5201 104.711 15.6001 104.451 15.6401V20.2401Z" fill="#DC2E2E"/><path d="M124.231 22.4701H118.411V26.4201H124.911V29.5101H114.821V12.8601H124.581V15.9501H118.411V19.4001H124.231V22.4701Z" fill="#DC2E2E"/><path d="M127.361 13.0801C128.461 12.8801 130.011 12.7301 132.191 12.7301C134.401 12.7301 135.961 13.1801 137.021 14.0601C138.031 14.9001 138.711 16.2801 138.711 17.9101C138.711 19.5401 138.201 20.9301 137.261 21.8601C136.041 23.0701 134.231 23.6201 132.121 23.6201C131.651 23.6201 131.231 23.5901 130.901 23.5401V29.4901H127.361V13.0801V13.0801ZM130.901 20.6401C131.201 20.7101 131.581 20.7401 132.091 20.7401C133.991 20.7401 135.161 19.7301 135.161 18.0201C135.161 16.4901 134.151 15.5701 132.371 15.5701C131.641 15.5701 131.151 15.6401 130.891 15.7201V20.6401H130.901Z" fill="#555659"/><path d="M143.261 25.2301L142.131 29.5001H138.421L143.251 12.8501H147.941L152.841 29.5001H148.991L147.771 25.2301H143.261V25.2301ZM147.281 22.4201L146.291 18.8901C146.001 17.9001 145.721 16.6701 145.491 15.6801H145.451C145.221 16.6701 144.981 17.9301 144.721 18.8901L143.781 22.4201H147.281Z" fill="#555659"/><path d="M166.011 29.0401C165.351 29.3901 163.871 29.7601 161.951 29.7601C156.491 29.7601 153.671 26.1801 153.671 21.4301C153.671 15.7501 157.521 12.5901 162.301 12.5901C164.151 12.5901 165.561 12.9901 166.201 13.3301L165.471 16.3201C164.741 16.0001 163.731 15.7101 162.471 15.7101C159.631 15.7101 157.431 17.5101 157.431 21.2201C157.431 24.5601 159.311 26.6601 162.501 26.6601C163.581 26.6601 164.781 26.4101 165.481 26.1201L166.011 29.0401Z" fill="#555659"/><path d="M168.351 12.8601H171.891V20.2201H171.971C172.321 19.5801 172.701 18.9901 173.051 18.3901L176.641 12.8501H181.031L175.801 19.9401L181.311 29.5001H177.131L173.261 22.3101L171.901 24.0701V29.5001H168.361V12.8601H168.351Z" fill="#555659"/><path d="M186.461 10.0401V2.58008H189.631C190.431 2.58008 191.011 2.65008 191.371 2.78008C191.731 2.92008 192.021 3.15008 192.241 3.50008C192.461 3.84008 192.571 4.24008 192.571 4.68008C192.571 5.24008 192.401 5.70008 192.081 6.06008C191.751 6.43008 191.261 6.66008 190.601 6.75008C190.931 6.94008 191.201 7.15008 191.411 7.38008C191.621 7.61008 191.901 8.01008 192.261 8.59008L193.171 10.0501H191.371L190.281 8.43008C189.891 7.85008 189.631 7.48008 189.491 7.34008C189.351 7.19008 189.201 7.08008 189.041 7.03008C188.881 6.98008 188.631 6.95008 188.281 6.95008H187.971V10.0701H186.461V10.0401ZM187.971 5.73008H189.091C189.811 5.73008 190.261 5.70008 190.441 5.64008C190.621 5.58008 190.761 5.47008 190.871 5.33008C190.971 5.18008 191.021 4.99008 191.021 4.77008C191.021 4.51008 190.951 4.31008 190.821 4.16008C190.691 4.01008 190.491 3.91008 190.251 3.87008C190.131 3.85008 189.761 3.85008 189.151 3.85008H187.971V5.73008V5.73008Z" fill="#555659"/><path d="M196.001 6.59C196.001 10.23 193.051 13.18 189.411 13.18C185.771 13.18 182.821 10.23 182.821 6.59C182.821 2.95 185.771 0 189.411 0C193.061 0 196.001 2.95 196.001 6.59ZM189.411 12.16C192.481 12.16 194.981 9.66 194.981 6.59C194.981 3.52 192.481 1.02 189.411 1.02C186.341 1.02 183.841 3.52 183.841 6.59C183.851 9.66 186.341 12.16 189.411 12.16Z" fill="#555659"/></g><defs><clipPath id="clip0_200_2040"><rect width="195.862" height="43.31" fill="white" transform="translate(0.139648)"/></clipPath></defs></svg>